<?xml version="1.0" standalone="no"?>
<!DOCTYPE svg PUBLIC "-//W3C//DTD SVG 20010904//EN"
 "http://www.w3.org/TR/2001/REC-SVG-20010904/DTD/svg10.dtd">
<svg version="1.0" xmlns="http://www.w3.org/2000/svg"
 width="900.000000pt" height="900.000000pt" viewBox="0 0 900.000000 900.000000"
 preserveAspectRatio="xMidYMid meet">
<style>
  /* Default to dark fill for light mode */
  g { fill: #1a1a1a; }
  
  /* Switch to light fill for dark mode */
  @media (prefers-color-scheme: dark) {
    g { fill: #f0f0f0; }
  }
</style>
<g transform="translate(0.000000,900.000000) scale(0.100000,-0.100000)"
 stroke="none">
<path d="M5516 8364 c-22 -8 -54 -26 -73 -40 -150 -114 -149 -431 1 -653 20
-29 36 -59 36 -66 0 -7 -19 -23 -42 -35 -24 -12 -62 -35 -86 -51 -24 -16 -46
-29 -49 -29 -12 0 -94 -70 -179 -155 -112 -111 -172 -189 -281 -370 -24 -40
-112 -203 -180 -335 -197 -380 -345 -580 -538 -730 -82 -64 -90 -70 -173 -110
-157 -76 -342 -119 -512 -119 -124 -1 -355 33 -461 67 -148 48 -212 71 -319
116 -70 30 -306 147 -380 189 -25 14 -63 35 -85 47 -22 12 -59 35 -83 51 -24
16 -45 29 -48 29 -2 0 -23 12 -47 27 -56 36 -78 50 -102 63 -11 6 -32 18 -47
28 -14 9 -122 75 -240 145 -117 70 -220 132 -228 137 -98 60 -210 100 -278
100 -47 -1 -138 -23 -179 -44 -61 -32 -129 -103 -164 -173 -33 -66 -34 -72
-37 -208 -4 -138 3 -182 39 -290 6 -16 15 -45 19 -64 5 -18 13 -38 19 -44 12
-12 15 -57 3 -57 -4 0 -22 4 -40 10 -46 13 -124 -19 -178 -72 -42 -40 -104
-151 -104 -185 0 -10 -7 -40 -15 -67 -21 -70 -21 -455 1 -580 33 -193 66 -327
123 -501 32 -95 43 -128 57 -160 7 -16 29 -69 49 -117 42 -104 182 -379 233
-460 9 -15 36 -57 60 -95 52 -83 145 -215 192 -274 217 -269 400 -457 669
-689 124 -106 161 -143 161 -157 0 -8 6 -27 14 -41 7 -15 31 -63 52 -107 84
-177 222 -348 389 -480 27 -22 56 -46 64 -53 13 -12 130 -93 169 -117 9 -6 35
-22 57 -36 22 -14 47 -29 55 -32 8 -4 29 -16 45 -27 17 -11 39 -24 50 -30 11
-6 34 -19 50 -30 17 -11 37 -23 45 -27 24 -11 139 -92 225 -157 224 -169 367
-365 449 -611 32 -99 24 -105 -155 -105 -115 0 -136 -3 -164 -20 -71 -44 -118
-148 -96 -211 6 -18 19 -41 28 -51 15 -17 63 -18 1042 -18 1024 1 1026 1 1051
21 22 19 25 29 25 83 0 75 -31 130 -97 173 l-42 28 -273 3 c-151 1 -282 6
-292 11 -18 10 -81 130 -81 155 0 9 -6 30 -14 48 -26 62 -66 237 -66 293 0 54
34 118 85 162 55 47 118 79 320 163 215 89 273 114 440 190 70 32 308 151 367
183 31 18 76 43 100 56 24 13 62 36 86 52 24 16 45 29 47 29 6 0 153 100 220
149 404 299 716 690 885 1111 12 30 27 66 32 80 6 14 14 39 18 55 5 17 13 44
19 60 32 93 68 268 86 416 32 267 10 596 -60 879 -26 107 -47 185 -57 212 -5
14 -14 41 -18 60 -5 18 -25 78 -45 133 -20 55 -40 112 -44 126 -5 14 -13 34
-19 45 -5 10 -17 37 -25 59 -25 66 -48 128 -65 168 -19 46 -10 67 34 79 45 11
112 74 141 132 21 42 26 65 26 132 1 85 -3 99 -65 232 -45 98 -46 116 -9 151
43 40 136 101 155 101 8 0 17 4 20 9 18 28 392 112 502 111 16 0 35 5 42 12
17 17 15 53 -3 68 -8 7 -15 17 -15 22 0 17 -86 121 -157 189 -90 87 -179 153
-272 201 -42 22 -80 77 -81 115 0 13 -60 141 -83 178 -23 38 -71 100 -101 133
l-31 33 3 198 c4 204 -4 264 -44 344 -8 16 -14 35 -14 43 0 7 -29 43 -64 79
-62 63 -65 65 -114 65 -59 0 -103 -22 -146 -75 -16 -19 -34 -35 -41 -35 -6 0
-30 29 -53 64 -55 84 -122 157 -191 209 -113 86 -194 100 -254 47 -28 -24 -36
-41 -47 -100 -7 -39 -18 -70 -25 -70 -6 0 -27 14 -46 31 -39 36 -179 128 -224
148 -88 39 -194 49 -259 25z m892 -919 c259 -75 473 -249 553 -450 17 -42 45
-133 53 -176 3 -14 16 -30 28 -36 125 -58 258 -137 258 -152 0 -12 -47 -30
-93 -37 -165 -23 -374 -134 -480 -255 -44 -50 -93 -140 -120 -219 -50 -151
-45 -423 13 -615 12 -38 25 -83 30 -100 4 -16 18 -55 30 -85 12 -30 25 -68 30
-83 5 -16 13 -34 18 -40 5 -7 12 -21 15 -32 3 -11 15 -45 27 -75 166 -431 235
-877 192 -1230 -24 -199 -55 -328 -129 -535 -47 -131 -175 -355 -292 -510 -68
-90 -252 -285 -341 -361 -76 -65 -322 -244 -335 -244 -2 0 -30 -17 -62 -38
-152 -101 -496 -271 -813 -402 -69 -29 -150 -63 -180 -77 -30 -13 -68 -30 -85
-37 -295 -131 -403 -232 -459 -427 -20 -71 -20 -135 0 -229 23 -110 42 -173
84 -290 7 -19 15 -50 17 -67 5 -29 2 -34 -23 -44 -17 -6 -82 -9 -159 -7 -119
2 -132 4 -152 25 -13 12 -23 32 -23 43 0 22 -51 182 -75 235 -24 52 -56 119
-68 140 -147 256 -309 426 -587 617 -36 24 -72 47 -80 51 -8 4 -27 15 -42 25
-15 9 -91 56 -170 105 -79 48 -152 93 -163 100 -50 31 -195 147 -242 195 -136
137 -228 303 -268 485 -20 87 -17 287 5 362 6 22 18 65 26 95 9 30 22 68 30
83 8 16 14 33 14 37 0 9 60 135 80 170 105 181 196 309 294 410 236 243 378
336 611 400 93 26 321 28 404 4 95 -28 223 -82 296 -127 110 -67 305 -254 415
-397 19 -25 57 -72 85 -105 27 -34 66 -81 85 -105 123 -155 188 -225 209 -228
19 -3 106 78 490 462 257 256 470 466 475 466 5 0 84 -74 176 -165 93 -91 171
-165 176 -165 4 0 16 7 26 17 17 15 18 42 18 432 0 244 -4 422 -10 431 -8 13
-68 16 -407 20 -219 3 -411 3 -427 0 -16 -3 -34 -13 -40 -22 -9 -15 11 -40
128 -157 117 -119 136 -142 127 -158 -5 -10 -167 -175 -359 -367 -270 -268
-353 -346 -365 -340 -9 5 -46 50 -83 99 -198 263 -368 429 -566 550 -39 24
-145 78 -168 85 -14 5 -49 18 -79 29 -133 50 -218 64 -391 65 -137 0 -181 -4
-258 -22 -51 -13 -103 -27 -115 -31 -93 -36 -120 -47 -177 -75 -63 -30 -220
-131 -270 -173 -133 -112 -179 -156 -256 -245 -82 -94 -160 -193 -191 -243
-55 -87 -142 -238 -160 -275 -32 -69 -68 -151 -85 -195 -23 -57 -74 -242 -80
-290 -7 -43 -38 -22 -184 123 -216 215 -261 266 -411 467 -112 150 -169 238
-261 400 -24 44 -114 227 -142 290 -56 128 -80 189 -80 201 0 7 -6 28 -14 46
-24 58 -61 190 -90 323 -64 293 -61 602 6 697 40 57 81 47 175 -42 32 -31 87
-80 123 -110 35 -30 80 -69 100 -87 81 -73 91 -78 155 -78 45 0 67 5 87 20 29
22 58 74 58 105 0 34 -40 97 -89 142 -107 96 -200 225 -275 379 -117 243 -142
482 -52 505 55 13 132 -26 481 -246 13 -8 56 -35 95 -60 39 -25 83 -53 98 -62
15 -10 34 -21 42 -25 8 -4 34 -20 56 -35 23 -15 44 -28 48 -28 3 0 22 -12 43
-26 21 -14 47 -30 58 -35 11 -5 36 -19 55 -30 135 -82 453 -237 550 -269 14
-5 50 -18 80 -30 285 -109 649 -170 845 -140 44 6 100 14 125 16 48 5 126 24
225 54 198 61 424 197 576 349 105 106 223 260 279 366 6 11 19 34 29 50 11
17 79 147 151 290 72 143 137 269 143 280 7 10 23 37 37 60 13 22 29 48 35 57
43 73 149 203 220 271 37 35 154 125 200 154 49 31 226 111 280 127 33 10 76
23 95 29 97 30 356 31 458 2z"/>
<path d="M6245 6995 c-46 -46 -52 -63 -46 -145 7 -108 152 -178 246 -120 59
36 85 81 85 146 0 107 -60 164 -174 164 -65 0 -67 -1 -111 -45z"/>
</g>
</svg>
